<svg width="500" height="501" viewBox="0 0 500 501" fill="none" xmlns="http://www.w3.org/2000/svg">
<rect y="0.44812" width="500" height="500" rx="50" fill="#0C0B0D"/>
<path d="M386.181 122.479C386.181 122.467 386.197 122.46 386.206 122.469L430.139 166.37C439.927 176.15 439.98 192.132 430.139 201.965L391.042 241.033C389.604 242.47 387.62 243.282 385.529 243.335H352.051L349.161 243.442V243.442C348.116 243.471 347.284 244.328 347.284 245.373V248.299V255.138V258.132V258.132C347.284 259.189 348.156 260.038 349.213 260.01L349.268 260.009L352.104 259.955H385.156C387.14 259.902 389.005 260.7 390.563 262.257L429.127 300.793C438.968 310.627 438.968 326.555 429.127 336.388L422.321 343.19C402.448 363.048 369.353 362.785 356.298 337.908C342.455 311.531 335.113 281.934 335.113 251.213C335.166 203.072 353.288 157.378 386.178 122.489C386.18 122.486 386.181 122.483 386.181 122.479V122.479Z" fill="white"/>
<path d="M113.872 122.437C113.872 122.442 113.874 122.447 113.877 122.45C146.766 157.02 164.834 202.447 164.834 250.641C164.8 281.375 157.424 311.089 143.508 337.637C130.438 362.572 97.2721 362.888 77.358 342.988L69.8608 335.497C60.0198 325.663 60.0731 309.682 69.8608 299.902L109.011 260.78C110.503 259.29 112.434 258.425 114.524 258.478L147.789 258.372H150.839C151.867 258.372 152.692 257.523 152.663 256.496V256.496V253.502L152.716 246.715V243.721V243.721C152.716 242.656 151.851 241.792 150.785 241.792V241.792L114.684 241.845C112.86 241.845 110.996 241.047 109.437 239.49L70.8728 200.954C61.0319 191.12 61.0319 175.192 70.8728 165.359L113.84 122.424C113.852 122.412 113.872 122.421 113.872 122.437V122.437Z" fill="white"/>
<path d="M378.12 386.648C378.137 386.648 378.145 386.668 378.133 386.68L334.208 430.573C324.367 440.406 308.427 440.406 298.586 430.573L259.542 391.558C257.997 390.014 257.185 388.032 257.185 385.889L257.079 352.543L257.185 349.656V349.656C257.185 348.59 256.32 347.726 255.254 347.726V347.726H252.258L245.413 347.832L242.524 347.726L242.468 347.725C241.411 347.696 240.539 348.545 240.539 349.602V349.602V352.596V385.623C240.539 387.659 239.794 389.469 238.289 390.972L199.724 429.508C189.883 439.342 173.943 439.342 164.103 429.508L157.35 422.761C137.457 402.883 137.723 369.747 162.639 356.704C189.016 342.896 218.601 335.583 249.288 335.617C297.465 335.67 343.192 353.779 378.107 386.643C378.11 386.646 378.115 386.648 378.12 386.648V386.648Z" fill="white"/>
<path d="M335.985 71.4144C335.977 71.4144 335.974 71.4233 335.979 71.4286L366.142 101.569C373.169 108.591 373.069 120.099 365.237 126.209C332.746 151.554 292.77 165.299 250.726 165.253C220.01 165.219 190.313 157.867 163.758 144.012C138.75 130.965 138.399 97.727 158.345 77.7834L165.846 70.2834C175.634 60.503 191.68 60.503 201.468 70.2834L240.565 109.352C242.057 110.842 242.922 112.878 242.922 115.02L243.029 148.366V151.359C243.029 152.425 243.893 153.29 244.96 153.29V153.29L247.849 153.183L254.641 153.13L257.584 153.183V153.183C258.65 153.183 259.515 152.319 259.515 151.253V148.273L259.621 115.246C259.461 113.37 260.26 111.507 261.818 109.95L300.383 71.4144C310.219 61.5856 326.148 61.5809 335.991 71.4002C335.996 71.4054 335.992 71.4144 335.985 71.4144V71.4144Z" fill="white"/>
</svg>
